#!OML:ASF X:\für Bonn\!DataBase\2005_08_11_Bastian_Final\c3d\Bastian.ASF
:FULLY-SPECIFIED
:DEGREES
78
root -0.0682157 7.79579 6.48179 169.506 -8.82392 -179.736
lowerback 31.0624 -1.02871 1.35354
upperback 6.46947 -2.89888 -2.88245
thorax -9.92591 -2.11123 -2.83466
lowerneck -12.8533 -7.16202 -0.0815583
upperneck -10.1286 -10.7892 10.5254
head -0.446681 -6.09713 2.97473
rclavicle 5.56597e-015 7.95139e-015
rhumerus 62.749 4.99713 -4.57984
rradius 40.796
rwrist -49.6287
rhand -42.7947 -3.94002
rfingers 7.12502
rthumb -15.6607 -33.3262
lclavicle 5.56597e-015 7.95139e-015
lhumerus 70.8838 -4.80605 -10.9652
lradius 33.6136
lwrist 6.5052
lhand -43.6842 12.0206
lfingers 7.12502
lthumb -16.5172 41.3375
rfemur -36.7603 -73.2249 -8.08862
rtibia 151.75
rfoot -54.0362 10.439
rtoes 10.4871
lfemur -64.3642 32.1289 -12.1939
ltibia 150.445
lfoot -44.7084 -29.7486
ltoes 0.036273
79
root -0.0662074 7.61027 6.49286 169.146 -8.72773 -179.673
lowerback 31.8202 -0.985115 1.4537
upperback 6.19941 -2.86621 -2.97129
thorax -9.82744 -2.09763 -2.75144
lowerneck -13.169 -7.15238 -0.00782399
upperneck -10.0762 -10.8177 10.4976
head -0.383311 -6.11225 2.93529
rclavicle 2.80286e-014 -7.95139e-016
rhumerus 62.6996 4.68255 -4.38278
rradius 40.8941
rwrist -49.8415
rhand -42.733 -3.99216
rfingers 7.12502
rthumb -15.6013 -33.383
lclavicle 2.80286e-014 -7.95139e-016
lhumerus 70.7497 -4.61865 -11.2226
lradius 33.7719
lwrist 7.14455
lhand -43.6952 12.2632
lfingers 7.12502
lthumb -16.5278 41.5793
rfemur -26.4505 -76.7352 -19.0869
rtibia 153.179
rfoot -54.5787 10.1416
rtoes 11.0721
lfemur -64.7597 34.7913 -11.5182
ltibia 151.939
lfoot -45.1152 -30.1718
ltoes 0.549788
80
root -0.0643093 7.43179 6.50375 168.749 -8.63025 -179.624
lowerback 32.4391 -0.941957 1.54375
upperback 6.31491 -2.84521 -2.95184
thorax -9.94761 -2.11576 -2.7671
lowerneck -13.4962 -7.13948 0.0203719
upperneck -10.0063 -10.8366 10.4989
head -0.308366 -6.12001 2.9127
rclavicle 7.7526e-015 1.27222e-014
rhumerus 62.7003 4.36726 -4.37257
rradius 40.9323
rwrist -49.848
rhand -42.6494 -4.07523
rfingers 7.12502
rthumb -15.5207 -33.4723
lclavicle 7.7526e-015 1.27222e-014
lhumerus 70.5884 -4.45073 -11.4289
lradius 33.9158
lwrist 7.75065
lhand -43.7233 12.4878
lfingers 7.12502
lthumb -16.5548 41.8017
rfemur -7.8594 -79.5553 -38.3384
rtibia 154.555
rfoot -55.0344 9.68575
rtoes 11.5803
lfemur -65.0749 37.4352 -10.825
ltibia 153.362
lfoot -45.3469 -30.5085
ltoes 1.13873
81
root -0.0626385 7.25896 6.51352 168.348 -8.51669 -179.577
lowerback 33.059 -0.893191 1.61326
upperback 6.42913 -2.82327 -2.91772
thorax -10.0637 -2.13374 -2.75653
lowerneck -13.8436 -7.11916 0.0607399
upperneck -9.91599 -10.8479 10.4554
head -0.227669 -6.12193 2.87228
rclavicle 9.14409e-015 -7.95139e-016
rhumerus 62.736 4.0464 -4.52094
rradius 40.9
rwrist -49.6221
rhand -42.5352 -4.15339
rfingers 7.12502
rthumb -15.4107 -33.559
lclavicle 9.14409e-015 -7.95139e-016
lhumerus 70.3846 -4.28452 -11.5999
lradius 34.0557
lwrist 8.3339
lhand -43.7061 12.718
lfingers 7.12502
lthumb -16.5383 42.0333
rfemur 19.0584 -80.5981 -65.8846
rtibia 155.878
rfoot -55.3107 9.14493
rtoes 12.1401
lfemur -65.2964 40.3209 -10.0439
ltibia 154.732
lfoot -45.3989 -30.917
ltoes 1.98276
82
root -0.0619261 7.09328 6.52305 167.923 -8.39755 -179.523
lowerback 33.7188 -0.843914 1.70267
upperback 6.5366 -2.79686 -2.8903
thorax -10.1996 -2.15145 -2.76419
lowerneck -14.1812 -7.09983 0.0983132
upperneck -9.83372 -10.8611 10.4583
head -0.147835 -6.12625 2.84849
rclavicle -1.96797e-014 -2.46493e-014
rhumerus 62.7573 3.74222 -4.71864
rradius 40.8668
rwrist -49.2806
rhand -42.4346 -4.28425
rfingers 7.12502
rthumb -15.3138 -33.6973
lclavicle -1.96797e-014 -2.46493e-014
lhumerus 70.2027 -4.12774 -11.7034
lradius 34.1587
lwrist 8.85323
lhand -43.7135 12.9346
lfingers 7.12502
lthumb -16.5454 42.2492
rfemur 45.1052 -79.2972 -92.4953
rtibia 157.145
rfoot -55.4997 8.42632
rtoes 12.4718
lfemur -65.4172 43.2676 -9.26715
ltibia 156.048
lfoot -45.6245 -30.9457
ltoes 2.09508
83
root -0.06098 6.93693 6.53238 167.522 -8.28298 -179.473
lowerback 34.3593 -0.807429 1.77688
upperback 6.63075 -2.78745 -2.85404
thorax -10.3385 -2.17571 -2.74826
lowerneck -14.5038 -7.07166 0.116676
upperneck -9.74117 -10.8571 10.4353
head -0.0685301 -6.11973 2.82101
rclavicle -1.45113e-014 -1.43125e-014
rhumerus 62.823 3.47826 -4.97173
rradius 40.8282
rwrist -48.9047
rhand -42.4102 -4.37014
rfingers 7.12502
rthumb -15.2903 -33.7849
lclavicle -1.45113e-014 -1.43125e-014
lhumerus 69.9702 -3.99394 -11.7825
lradius 34.2684
lwrist 9.39616
lhand -43.6835 13.0303
lfingers 7.12502
lthumb -16.5165 42.3473
rfemur 61.4034 -76.6543 -109.294
rtibia 158.337
rfoot -55.5068 7.7671
rtoes 12.8957
lfemur -65.5495 45.9926 -8.53966
ltibia 157.276
lfoot -45.8313 -30.8636
ltoes 2.14766
84
root -0.0600796 6.78836 6.54174 167.097 -8.15536 -179.421
lowerback 35.0178 -0.760596 1.86163
upperback 6.73917 -2.76695 -2.8162
thorax -10.4633 -2.19789 -2.74014
lowerneck -14.8899 -7.05049 0.0896893
upperneck -9.61534 -10.8608 10.4616
head 0.0384733 -6.11338 2.81334
rclavicle 1.2921e-014 7.15625e-015
rhumerus 62.8689 3.20038 -5.17086
rradius 40.8424
rwrist -48.6654
rhand -42.4313 -4.4584
rfingers 7.12502
rthumb -15.3106 -33.8717
lclavicle 1.2921e-014 7.15625e-015
lhumerus 69.7738 -3.84183 -11.8096
lradius 34.3431
lwrist 9.91771
lhand -43.6633 13.1153
lfingers 7.12502
lthumb -16.497 42.4339
rfemur 71.0058 -73.3651 -119.313
rtibia 159.442
rfoot -55.4672 7.09769
rtoes 13.4384
lfemur -65.5965 48.6113 -7.76445
ltibia 158.435
lfoot -45.9303 -30.7657
ltoes 2.43054
85
root -0.0595136 6.65036 6.55108 166.696 -8.0152 -179.374
lowerback 35.7196 -0.723404 1.95009
upperback 6.76883 -2.755 -2.77522
thorax -10.5679 -2.22395 -2.7365
lowerneck -15.2402 -7.03111 0.0482767
upperneck -9.54012 -10.8642 10.4801
head 0.123493 -6.11085 2.80915
rclavicle -1.05356e-014 4.21423e-014
rhumerus 62.9175 2.92842 -5.41697
rradius 40.8679
rwrist -48.4519
rhand -42.4808 -4.46809
rfingers 7.12502
rthumb -15.3583 -33.8777
lclavicle -1.05356e-014 4.21423e-014
lhumerus 69.5145 -3.68447 -11.8708
lradius 34.4631
lwrist 10.5067
lhand -43.6427 13.0477
lfingers 7.12502
lthumb -16.4772 42.368
rfemur 76.3381 -70.2627 -125.009
rtibia 160.458
rfoot -55.3368 6.55336
rtoes 14.0474
lfemur -65.6516 50.999 -7.08261
ltibia 159.502
lfoot -45.9554 -30.5315
ltoes 2.57136
86
root -0.0588413 6.52105 6.561 166.303 -7.87777 -179.307
lowerback 36.3352 -0.698334 2.07045
upperback 6.87054 -2.7471 -2.74693
thorax -10.6798 -2.25255 -2.75305
lowerneck -15.6222 -7.01972 -0.00999594
upperneck -9.40778 -10.876 10.5371
head 0.236842 -6.10707 2.81701
rclavicle -4.77083e-015 -1.59028e-014
rhumerus 62.9542 2.70527 -5.50895
rradius 40.9516
rwrist -48.4819
rhand -42.6206 -4.45748
rfingers 7.12502
rthumb -15.4929 -33.8567
lclavicle -4.77083e-015 -1.59028e-014
lhumerus 69.27 -3.54576 -11.9023
lradius 34.5571
lwrist 11.0722
lhand -43.6738 12.9208
lfingers 7.12502
lthumb -16.5072 42.2386
rfemur 79.5638 -67.3315 -128.477
rtibia 161.394
rfoot -55.2305 6.044
rtoes 14.7581
lfemur -65.6422 53.2206 -6.34508
ltibia 160.488
lfoot -45.9008 -30.3672
ltoes 2.9679
87
root -0.058199 6.40006 6.57162 165.932 -7.73559 -179.265
lowerback 36.9154 -0.667385 2.15839
upperback 6.97265 -2.74224 -2.7137
thorax -10.7735 -2.28174 -2.74691
lowerneck -15.9885 -6.98577 -0.0625233
upperneck -9.30634 -10.8586 10.5741
head 0.334515 -6.09164 2.82135
rclavicle -7.55382e-015 -1.90833e-014
rhumerus 62.9718 2.50171 -5.50849
rradius 41.1319
rwrist -48.7073
rhand -42.8222 -4.46162
rfingers 7.12502
rthumb -15.6871 -33.8457
lclavicle -7.55382e-015 -1.90833e-014
lhumerus 68.9893 -3.42379 -11.9992
lradius 34.6727
lwrist 11.7031
lhand -43.7119 12.7259
lfingers 7.12502
lthumb -16.5439 42.0406
rfemur 81.3194 -64.796 -130.509
rtibia 162.273
rfoot -55.1642 5.7367
rtoes 15.6683
lfemur -65.4407 55.44 -5.49246
ltibia 161.408
lfoot -45.8485 -30.3201
ltoes 3.67173
88
root -0.0569771 6.28763 6.58341 165.586 -7.59804 -179.242
lowerback 37.4464 -0.625579 2.22853
upperback 7.09041 -2.73203 -2.67723
thorax -10.8274 -2.30891 -2.73173
lowerneck -16.3994 -6.96258 -0.126798
upperneck -9.20475 -10.8574 10.5949
head 0.440018 -6.08393 2.81981
rclavicle 1.19271e-014 -2.06736e-014
rhumerus 62.9693 2.32054 -5.36286
rradius 41.3382
rwrist -49.0694
rhand -43.0719 -4.46289
rfingers 7.12502
rthumb -15.9276 -33.828
lclavicle 1.19271e-014 -2.06736e-014
lhumerus 68.6943 -3.31258 -11.9882
lradius 34.7826
lwrist 12.1543
lhand -43.7587 12.5615
lfingers 7.12502
lthumb -16.5889 41.8725
rfemur 82.185 -62.7288 -131.606
rtibia 163.083
rfoot -55.1894 5.60864
rtoes 16.7406
lfemur -65.215 57.4718 -4.68729
ltibia 162.259
lfoot -45.823 -30.1761
ltoes 4.31157
89
root -0.0552521 6.18377 6.59525 165.277 -7.45647 -179.18
lowerback 37.883 -0.593132 2.31574
upperback 7.21326 -2.71911 -2.61755
thorax -10.8382 -2.33329 -2.70487
lowerneck -16.7773 -6.94061 -0.249484
upperneck -9.14366 -10.8476 10.6677
head 0.533879 -6.0739 2.84903
rclavicle 1.86858e-014 5.56597e-015
rhumerus 62.9963 2.21285 -5.35804
rradius 41.5129
rwrist -49.2749
rhand -43.3357 -4.40577
rfingers 7.12502
rthumb -16.1817 -33.7504
lclavicle 1.86858e-014 5.56597e-015
lhumerus 68.3946 -3.26813 -11.7043
lradius 34.7811
lwrist 12.2306
lhand -43.7877 12.3296
lfingers 7.12502
lthumb -16.6168 41.6383
rfemur 82.7125 -60.9895 -132.218
rtibia 163.811
rfoot -55.2721 5.52971
rtoes 17.9123
lfemur -65.033 59.3518 -3.88804
ltibia 163.051
lfoot -45.7659 -30.0118
ltoes 4.78478
90
root -0.0536435 6.0867 6.60706 164.992 -7.3027 -179.123
lowerback 38.2409 -0.564324 2.41091
upperback 7.33863 -2.7079 -2.58643
thorax -10.8189 -2.35711 -2.71475
lowerneck -17.1861 -6.91282 -0.316998
upperneck -9.02587 -10.8397 10.723
head 0.647505 -6.06158 2.86037
rclavicle -2.78299e-015 1.11319e-014
rhumerus 63.0604 2.16089 -5.64178
rradius 41.5579
rwrist -49.2216
rhand -43.472 -4.30852
rfingers 7.12502
rthumb -16.3129 -33.6424
lclavicle -2.78299e-015 1.11319e-014
lhumerus 68.0969 -3.30149 -11.4652
lradius 34.7876
lwrist 12.0507
lhand -43.8419 12.3183
lfingers 7.12502
lthumb -16.669 41.6226
rfemur 82.9898 -59.6143 -132.557
rtibia 164.487
rfoot -55.3888 5.49507
rtoes 19.0354
lfemur -64.8026 61.147 -3.04641
ltibia 163.776
lfoot -45.6506 -29.9592
ltoes 5.54028
91
root -0.0515198 5.99617 6.6191 164.774 -7.14763 -179.075
lowerback 38.4415 -0.509714 2.46634
upperback 7.49023 -2.67209 -2.5201
thorax -10.7096 -2.36689 -2.68174
lowerneck -17.605 -6.89524 -0.456372
upperneck -8.94218 -10.8343 10.8035
head 0.758144 -6.05098 2.89338
rclavicle -1.15295e-014 -1.03368e-014
rhumerus 63.1348 2.1317 -5.87779
rradius 41.6068
rwrist -49.1719
rhand -43.6064 -4.24724
rfingers 7.12502
rthumb -16.4422 -33.5704
lclavicle -1.15295e-014 -1.03368e-014
lhumerus 67.7964 -3.38322 -11.1944
lradius 34.7726
lwrist 11.7385
lhand -43.9336 12.367
lfingers 7.12502
lthumb -16.7573 41.6638
rfemur 83.3027 -58.3911 -132.879
rtibia 165.123
rfoot -55.5167 5.36697
rtoes 19.9675
lfemur -64.7499 62.7356 -2.38936
ltibia 164.451
lfoot -45.5149 -29.8938
ltoes 6.23334
